<svg width="198" height="177" viewBox="0 0 198 177" xmlns="http://www.w3.org/2000/svg" xmlns:xlink="http://www.w3.org/1999/xlink"><svg width="66" height="66" viewBox="-1 -1 66 66" id="code" xmlns="http://www.w3.org/2000/svg"><title>background</title><path fill="none" d="M-1-1h66v66H-1z"/><title>Layer 1</title><path d="M38.573 3.075l-2.151-.78c-.277-.122-.55-.084-.815.115-.266.199-.446.497-.538.895L22.132 62.557c-.092.398-.063.773.087 1.125s.376.589.677.71l2.15.781c.277.124.55.085.815-.114.266-.2.445-.497.538-.894L39.336 4.912a1.775 1.775 0 0 0-.087-1.126c-.15-.352-.376-.589-.676-.71zM19.186 14.642c0-.398-.116-.75-.347-1.056l-1.735-2.295c-.23-.306-.497-.459-.797-.459s-.567.154-.798.46L-.653 32.678A1.702 1.702 0 0 0-1 33.734c0 .398.116.75.347 1.056l16.162 21.387c.23.307.496.459.797.459s.567-.153.798-.459l1.734-2.293a1.7 1.7 0 0 0 .347-1.057c0-.397-.115-.749-.347-1.055L5.208 33.734l13.63-18.036a1.7 1.7 0 0 0 .348-1.056zm42.935 18.036L45.96 11.291c-.23-.306-.497-.46-.797-.46-.301 0-.566.154-.798.46l-1.734 2.295c-.23.305-.346.657-.346 1.055s.115.75.346 1.056l13.63 18.037-13.63 18.038a1.704 1.704 0 0 0-.346 1.055c0 .399.115.75.346 1.057l1.734 2.293c.232.307.497.459.798.459.3 0 .566-.153.797-.459L62.121 34.79c.231-.306.347-.658.347-1.056s-.116-.75-.347-1.056z" stroke="null"/></svg><svg id="facebook" data-name="Layer 1" width="23.23" height="44.01" viewBox="-1 -1 23.23 44.01" y="132" xmlns="http://www.w3.org/2000/svg"><defs><style>.bcls-1{fill:#fff}</style></defs><title>facebook</title><path class="bcls-1" d="M21.23.31V7H17.4a3.55 3.55 0 0 0-2.85.91 4.26 4.26 0 0 0-.74 2.72v4.77H21l-1 7.47h-6.19V42H6.27V22.85H0v-7.47h6.27V9.85q0-4.69 2.55-7.28A9 9 0 0 1 15.63 0a39.57 39.57 0 0 1 5.6.31z"/></svg><svg id="instagram" data-name="Layer 1" width="44.01" height="44.01" viewBox="-1 -1 44.01 44.01" x="23.23" y="132" xmlns="http://www.w3.org/2000/svg"><defs><style>.ccls-1{fill:#fff}</style></defs><title>instagram</title><path class="ccls-1" d="M37.25 35.49V17.77h-3.69a11.77 11.77 0 0 1 .57 3.58 12.12 12.12 0 0 1-1.75 6.36 12.76 12.76 0 0 1-4.76 4.59 13.13 13.13 0 0 1-6.56 1.7 12.78 12.78 0 0 1-9.19-3.71 12 12 0 0 1-3.83-9 11.77 11.77 0 0 1 .49-3.56H4.68v17.76a1.63 1.63 0 0 0 1.6 1.67h29.3a1.63 1.63 0 0 0 1.17-.47 1.59 1.59 0 0 0 .5-1.2zm-7.77-14.57A7.75 7.75 0 0 0 27 15.14a8.28 8.28 0 0 0-6-2.4 8.25 8.25 0 0 0-5.91 2.39 7.75 7.75 0 0 0-2.47 5.78 7.75 7.75 0 0 0 2.47 5.79A8.25 8.25 0 0 0 21 29.1a8.28 8.28 0 0 0 6-2.4 7.75 7.75 0 0 0 2.48-5.78zm7.76-9.84V6.56a1.84 1.84 0 0 0-.54-1.31 1.8 1.8 0 0 0-1.31-.56h-4.78a1.8 1.8 0 0 0-1.31.56 1.84 1.84 0 0 0-.54 1.31v4.52A1.87 1.87 0 0 0 30.6 13h4.8a1.87 1.87 0 0 0 1.85-1.89zM42 5.39v31.23A5.41 5.41 0 0 1 36.62 42H5.39a5.19 5.19 0 0 1-3.8-1.59A5.19 5.19 0 0 1 0 36.62V5.39a5.19 5.19 0 0 1 1.59-3.8A5.19 5.19 0 0 1 5.39 0h31.23a5.19 5.19 0 0 1 3.8 1.59A5.19 5.19 0 0 1 42 5.39z"/></svg><svg id="mail" data-name="Layer 1" width="66" height="50" viewBox="-1 -1 66 50" x="66" xmlns="http://www.w3.org/2000/svg"><defs><style>.dcls-1{fill:#2f5572}</style></defs><title>mail</title><path class="dcls-1" d="M0 0v8l32 16L64 8V0H0zm0 16v32h64V16L32 32z"/></svg><svg width="66" height="66" viewBox="-1 -1 66 66" id="ror" y="66" xmlns="http://www.w3.org/2000/svg"><title>background</title><path fill="none" d="M-1-1h66v66H-1z"/><title>Layer 1</title><path d="M6.32 41.545v23.156h3.052v-6.03l2.777 5.374h4.682l-3.713-7.188s2.671-.084 2.873-7.562c0-6.86-2.674-7.75-5.764-7.75H6.321zm3.198 6.281h2.631v4.125H9.518v-4.125zm13.207-6.186c-1.67-.02-3.988.28-3.988 6.374v16.094h3.132V60.17h3.035v3.844h3.149V47.14c0-5.293-3.039-5.5-4.666-5.5-.204 0-.423.003-.662 0zm-.807 5.811h2.938v6.344h-2.938v-6.344zm9.273-5.797h3.241v22.152h-3.241zm6.635.294V64.1h7.798v-5.88h-4.608V41.85l-3.19.098zm18.13-.196v5.98h-5.217v2.155h2.228c1.164 0 3.596-.098 3.596 6.96 0 7.057-1.671 7.45-5.064 7.45h-4.102v-5.393h4.71c1.418 0 1.496-.894 1.496-1.672s-.725-1.14-2.2-1.14-4.208-1.403-4.208-6.892c0-5.489 1.417-7.548 4.253-7.548s4.508.1 4.508.1z" stroke="null"/><g stroke="null"><path d="M7.84 38.99h29.694s-6.586-9.739-4.912-18.677c1.675-8.938 12.503-13.008 18.642-13.444 6.14-.437 9.489 2.035 9.489 2.035l1.34-1.309s-8.82-5.813-19.983-5.16C30.947 3.09 23.245 7.886 18.445 13.7c-4.8 5.814-7.591 9.883-9.489 15.987S7.84 38.99 7.84 38.99zm-5.916-9.739l5.804.291-1.005 3.779-5.47-.436.67-3.634zm9.153-7.993l1.564-2.834-5.136-1.309-1.674 3.052 5.246 1.09zm7.256-9.738l3.014-2.325-3.907-1.672-3.125 2.252 4.018 1.745zm7.926-9.011l2.679 2.107 3.684-1.38-2.68-1.963-3.683 1.236zM39.32.11l.67 2.108 4.577-.072-.447-1.89-4.8-.146z"/><path d="M54.837 2.363l-.112 1.308 3.126 1.09.67-.654-3.684-1.744zm-.67 5.596v1.09l3.014.218v-.872l-3.014-.436zm-9.6.945l1.451 1.743 2.121-1.09-.446-1.162-3.126.509zm-4.577 2.253l2.232 2.18-1.34 1.526-3.237-2.325 2.344-1.381zm-4.465 6.031l-1.452 1.89 3.796 2.107.893-2.398-3.237-1.599zm-1.563 6.613l-.224 2.543 4.689 1.309-.224-2.399-4.241-1.453zm1.339 9.011l1.117 2.617 5.916.218-2.122-2.835h-4.911z"/></g></svg><svg id="twitter" data-name="Layer 1" width="53.78" height="44.06" viewBox="-1 -1 53.78 44.06" x="132" y="66" xmlns="http://www.w3.org/2000/svg"><defs><style>.fcls-1{fill:#fff}</style></defs><title>twitter</title><path class="fcls-1" d="M51.78 5a22.23 22.23 0 0 1-5.32 5.52v1.38a30.15 30.15 0 0 1-1.25 8.53 30.81 30.81 0 0 1-3.76 8.13 32.1 32.1 0 0 1-6.06 6.92 27 27 0 0 1-8.48 4.8 31 31 0 0 1-10.62 1.8A29.47 29.47 0 0 1 0 37.29a22.71 22.71 0 0 0 2.56.13 20.78 20.78 0 0 0 13.17-4.53 10.63 10.63 0 0 1-9.92-7.36 13.45 13.45 0 0 0 2 .16 11 11 0 0 0 2.79-.36 10.44 10.44 0 0 1-6.09-3.67 10.25 10.25 0 0 1-2.41-6.75v-.13a10.52 10.52 0 0 0 4.8 1.34 10.6 10.6 0 0 1-3.45-3.78 10.34 10.34 0 0 1-1.28-5.07 10.4 10.4 0 0 1 1.45-5.33 30.08 30.08 0 0 0 9.71 7.83A29.57 29.57 0 0 0 25.53 13a11.79 11.79 0 0 1-.26-2.43 10.23 10.23 0 0 1 3-7.48 10.64 10.64 0 0 1 15 0l.21.22A20.81 20.81 0 0 0 50.33.8a10.3 10.3 0 0 1-4.67 5.85A21.14 21.14 0 0 0 51.78 5z"/></svg><svg width="66" height="66" viewBox="-1 -1 66 66" id="wc" x="66" y="66" xmlns="http://www.w3.org/2000/svg"><title>background</title><path fill="none" d="M-1-1h66v66H-1z"/><title>Layer 1</title><g stroke="null"><path d="M40.562 2003.786c-14.008-10.668-23.056-26.186-29.184-49.948C7.584 1938.32 7 1906.798 7 1750.164c0-170.212.584-187.185 5.545-205.128 6.42-23.277 15.76-38.31 30.06-48.493 9.34-6.305 30.06-7.274 138.92-7.274h128.12l55.16-50.919c30.351-28.126 55.45-48.978 56.034-46.554.292 1.94-3.794 22.307-9.631 44.614-5.545 22.308-10.215 43.16-10.215 46.554 0 4.85 20.43 6.305 98.644 6.305 109.443 0 113.529 1.454 129.872 33.46 13.425 26.672 14.009 38.31 13.133 239.074l-.875 187.185-8.756 21.338c-5.253 12.123-14.3 25.216-21.888 32.005l-12.842 10.67H325.113c-259.16 0-273.46-.486-284.55-9.215zm258.285-58.677c7.296-12.123 7.296-31.52 0-59.162-12.842-48.494-25.39-165.849-28.31-265.26-.875-33.946-2.918-64.982-4.377-69.347-3.794-12.608-14.884-15.518-25.099-6.789-16.052 14.063-45.82 93.108-57.494 153.24-2.918 14.548-5.837 28.612-6.712 31.036-.876 2.425-11.382-28.611-23.64-68.376-30.06-97.957-44.36-128.023-58.37-120.264-12.84 6.789-28.016 89.228-45.527 248.772-11.966 108.626-12.55 127.054-4.67 138.692 7.296 10.669 25.099 12.124 30.936 2.425 2.918-4.365 7.296-35.4 11.674-77.59 10.214-98.927 19.554-170.213 22.18-165.848 1.168 2.424 14.009 42.19 28.893 88.743 30.06 94.563 35.313 106.686 46.987 106.686 13.717 0 16.636-7.274 24.515-65.466 6.713-49.949 16.636-104.262 18.97-104.262 1.168 0 2.919 15.033 4.086 33.461 4.67 76.135 22.473 175.547 35.898 200.279 6.42 11.638 22.764 11.153 30.06-.97zm114.112-48.494c23.64-20.367 35.605-61.587 35.897-123.659 0-53.343-5.545-86.318-21.305-127.053-15.176-39.28-30.352-56.253-52.824-58.677-45.82-5.335-72.962 45.584-72.962 136.752 0 132.388 56.035 219.191 111.194 172.637zm150.009 7.76c30.352-15.519 48.155-64.497 48.155-133.358 0-101.837-35.314-184.276-79.09-184.761-39.108 0-64.499 43.16-68.877 117.355-5.545 103.291 32.687 203.188 79.675 207.067 3.21.485 12.257-2.91 20.137-6.304z" transform="matrix(.1 0 0 -.1 0 200)"/><path d="M377.645 1835.028c-17.219-10.668-32.103-57.707-32.103-102.321 0-81.47 29.477-97.957 51.073-28.127 7.005 22.792 8.464 33.946 8.464 60.133 0 34.915-5.837 60.132-15.468 68.86-3.21 2.425-6.129 4.85-6.712 4.365-.584 0-2.919-1.455-5.254-2.91zm158.473-2.909c-14.884-13.579-30.06-65.467-30.06-102.807 0-32.976 12.55-70.316 23.64-70.316 7.588 0 22.472 22.792 29.476 45.584 9.047 29.582 10.507 77.59 2.918 106.202-3.502 12.608-7.296 22.792-9.047 22.792-1.459 0-4.377.97-6.712 2.424-2.043.97-6.713-.485-10.215-3.88z" transform="matrix(.1 0 0 -.1 0 200)"/></g></svg><svg width="66" height="66" viewBox="-1 -1 66 66" id="wp" x="132" xmlns="http://www.w3.org/2000/svg"><title>background</title><path fill="none" d="M-1-1h66v66H-1z"/><title>Layer 1</title><path d="M7.75 29.5c0 8.528 5.348 15.9 13.104 19.392L9.764 20.73A20.14 20.14 0 0 0 7.75 29.5zm38.945-1.087c0-2.664-1.032-4.508-1.916-5.943-1.178-1.776-2.284-3.278-2.284-5.054 0-1.98 1.62-3.824 3.904-3.824.104 0 .201.011.302.017C42.564 10.096 37.053 7.95 31 7.95c-8.124 0-15.27 3.863-19.427 9.713.546.016 1.06.026 1.497.026 2.43 0 6.196-.274 6.196-.274a.892.892 0 0 1 .149 1.776s-1.26.136-2.661.204l8.466 23.341 5.089-14.142-3.622-9.199c-1.253-.068-2.439-.204-2.439-.204-1.253-.069-1.106-1.844.148-1.776 0 0 3.838.274 6.123.274 2.43 0 6.197-.274 6.197-.274a.892.892 0 0 1 .148 1.776s-1.261.136-2.66.204l8.402 23.164 2.32-7.181c1.003-2.982 1.768-5.123 1.768-6.966zm-15.287 2.971l-6.976 18.787a24.94 24.94 0 0 0 6.568.878c2.708 0 5.304-.433 7.721-1.222a1.97 1.97 0 0 1-.166-.297l-7.147-18.146zm19.994-12.222c.1.686.157 1.422.157 2.216 0 2.185-.442 4.643-1.769 7.718l-7.1 19.029C49.6 44.39 54.25 37.449 54.25 29.5c0-3.747-1.033-7.27-2.848-10.338zM31 0C13.88 0 0 13.208 0 29.5S13.88 59 31 59s31-13.208 31-29.5S48.12 0 31 0zm0 55.313c-14.98 0-27.125-11.557-27.125-25.813S16.019 3.687 31 3.687c14.98 0 27.125 11.557 27.125 25.813S45.981 55.313 31 55.313z" stroke="null"/></svg><svg id="youtube" data-name="Layer 1" width="36.75" height="44" viewBox="-1 -1 36.75 44" x="67.24" y="132" xmlns="http://www.w3.org/2000/svg"><defs><style>.icls-1{fill:#fff}</style></defs><title>youtube</title><path class="icls-1" d="M22.13 29.15v5q0 1.57-.91 1.57a1.5 1.5 0 0 1-1.06-.52v-7.11a1.5 1.5 0 0 1 1.06-.54q.91 0 .91 1.6zm7.92 0v1.08h-2.1v-1.06q0-1.59 1.06-1.59t1 1.59zM7.42 24h2.5v-2.14h-7.3v2.2h2.46V37.4h2.34V24zm6.75 13.4h2.09V25.82h-2.09v8.86a1.86 1.86 0 0 1-1.31 1 .48.48 0 0 1-.49-.47 6.52 6.52 0 0 1 0-.82v-8.57h-2.14V35a5.79 5.79 0 0 0 .19 1.71 1.26 1.26 0 0 0 1.36.87 3.43 3.43 0 0 0 2.39-1.43v1.25zm10.05-3.47v-4.6A8.33 8.33 0 0 0 24 27a1.63 1.63 0 0 0-1.67-1.31A2.82 2.82 0 0 0 20.16 27v-5.1h-2.08v15.5h2.09v-1.13a2.91 2.91 0 0 0 2.18 1.31A1.62 1.62 0 0 0 24 36.27a8.61 8.61 0 0 0 .22-2.35zm7.92-.24v-.3H30a11.6 11.6 0 0 1 0 1.43.9.9 0 0 1-.94.85q-1.08 0-1.08-1.61V32h4.19v-2.41a4.65 4.65 0 0 0-.66-2.72 3.2 3.2 0 0 0-5 0 4.52 4.52 0 0 0-.66 2.72v4.05a4.4 4.4 0 0 0 .66 2.72 3 3 0 0 0 2.49 1.2 2.9 2.9 0 0 0 3-2.51 10.31 10.31 0 0 0 .09-1.36zM17.89 12.3V7.38q0-1.61-1-1.61t-1 1.61v4.92q0 1.64 1 1.64t1-1.64zm16.85 17.6a40.6 40.6 0 0 1-.61 8.2 4.45 4.45 0 0 1-1.36 2.32 4.1 4.1 0 0 1-2.39 1.08 125.31 125.31 0 0 1-13 .49 125.31 125.31 0 0 1-13-.49A4.15 4.15 0 0 1 2 40.42 4.28 4.28 0 0 1 .63 38.1 39.76 39.76 0 0 1 0 29.9a40.6 40.6 0 0 1 .61-8.2A4.45 4.45 0 0 1 2 19.37a4.25 4.25 0 0 1 2.41-1.1q4.29-.47 13-.47t13 .47a4.4 4.4 0 0 1 3.75 3.42 39.76 39.76 0 0 1 .58 8.21zM11.35 0h2.39l-2.83 9.35v6.35H8.57V9.35a39.68 39.68 0 0 0-1.43-5Q6.27 2 5.61 0H8.1l1.67 6.16zM20 7.8v4.1a4.59 4.59 0 0 1-.66 2.76 2.88 2.88 0 0 1-2.49 1.19 2.9 2.9 0 0 1-2.46-1.19 4.68 4.68 0 0 1-.66-2.76V7.8a4.59 4.59 0 0 1 .66-2.74 2.9 2.9 0 0 1 2.46-1.19 2.88 2.88 0 0 1 2.49 1.19A4.59 4.59 0 0 1 20 7.8zM27.87 4v11.7h-2.13v-1.27a3.37 3.37 0 0 1-2.41 1.45A1.31 1.31 0 0 1 22 15a6 6 0 0 1-.19-1.76V4h2.13v8.6a6.14 6.14 0 0 0 0 .82.49.49 0 0 0 .47.52 1.87 1.87 0 0 0 1.31-1V4h2.16z"/></svg></svg>