<svg width="64" height="64" xmlns="http://www.w3.org/2000/svg">

 <g>
  <title>background</title>
  <rect fill="none" id="canvas_background" height="66" width="66" y="-1" x="-1"/>
 </g>
 <g>
  <title>Layer 1</title>
  <g stroke="null" id="svg_1">
   <g stroke="null" id="svg_2">
    <path stroke="null" id="svg_3" d="m38.572697,3.075284l-2.150878,-0.780301c-0.276847,-0.122173 -0.549563,-0.083753 -0.814748,0.114939c-0.266035,0.198853 -0.4457,0.497373 -0.538023,0.895079l-12.936607,59.252048c-0.092323,0.397867 -0.063411,0.773067 0.086856,1.124475c0.150267,0.352052 0.375365,0.589164 0.676386,0.711337l2.15027,0.780622c0.277454,0.123138 0.549199,0.084557 0.815113,-0.114457c0.266035,-0.199817 0.445336,-0.497373 0.537537,-0.894436l12.936971,-59.253013c0.092201,-0.397706 0.063533,-0.772906 -0.086978,-1.125118c-0.150389,-0.352052 -0.375243,-0.589164 -0.6759,-0.711176z"/>
    <path stroke="null" id="svg_4" d="m19.185523,14.641867c0,-0.397706 -0.115768,-0.749918 -0.346939,-1.055672l-1.734332,-2.294926c-0.231171,-0.305915 -0.497207,-0.459275 -0.797742,-0.459275s-0.566692,0.15352 -0.797742,0.459275l-16.16183,21.387374c-0.231536,0.305915 -0.346939,0.657967 -0.346939,1.055672c0,0.397706 0.115768,0.749757 0.346939,1.055512l16.161708,21.387374c0.23105,0.306397 0.496721,0.458792 0.797742,0.458792s0.566692,-0.152877 0.797742,-0.458792l1.734332,-2.29364c0.231171,-0.305754 0.346939,-0.657967 0.346939,-1.056155c0,-0.397223 -0.115768,-0.749275 -0.346939,-1.055029l-13.630121,-18.038062l13.630242,-18.036776c0.231536,-0.305754 0.346939,-0.657967 0.346939,-1.055672z"/>
    <path stroke="null" id="svg_5" d="m62.12132,32.67816l-16.162194,-21.387374c-0.23105,-0.305754 -0.497207,-0.459275 -0.797256,-0.459275c-0.301021,0 -0.566206,0.15352 -0.798106,0.459275l-1.733603,2.294765c-0.23105,0.305915 -0.346332,0.657484 -0.346332,1.055672s0.115161,0.749918 0.346332,1.055672l13.630485,18.037258l-13.630485,18.038223c-0.23105,0.305754 -0.346332,0.657967 -0.346332,1.055029c0,0.398349 0.115161,0.7504 0.346332,1.056155l1.733603,2.29364c0.2319,0.306397 0.497207,0.458792 0.798106,0.458792c0.30017,0 0.566206,-0.152877 0.797256,-0.458792l16.162194,-21.387214c0.231171,-0.305754 0.346696,-0.658449 0.346696,-1.056155c0,-0.397867 -0.115525,-0.749918 -0.346696,-1.055672z"/>
   </g>
  </g>
  <g id="svg_6"/>
  <g id="svg_7"/>
  <g id="svg_8"/>
  <g id="svg_9"/>
  <g id="svg_10"/>
  <g id="svg_11"/>
  <g id="svg_12"/>
  <g id="svg_13"/>
  <g id="svg_14"/>
  <g id="svg_15"/>
  <g id="svg_16"/>
  <g id="svg_17"/>
  <g id="svg_18"/>
  <g id="svg_19"/>
  <g id="svg_20"/>
 </g>
</svg>