<svg width="64" height="64" xmlns="http://www.w3.org/2000/svg">

 <g>
  <title>background</title>
  <rect fill="none" id="canvas_background" height="66" width="66" y="-1" x="-1"/>
 </g>
 <g>
  <title>Layer 1</title>
  <g stroke="null" id="layer7">
   <path stroke="null" id="path3993" d="m6.320868,41.545441l0,23.156l3.051452,0l0,-6.031l2.7771,5.375l4.682061,0l-3.713822,-7.188c0,0 2.671699,-0.084 2.873717,-7.562c0,-6.861 -2.674799,-7.75 -5.763968,-7.75l-3.90654,0zm3.196636,6.281l2.631916,0l0,4.125l-2.631916,0l0,-4.125z"/>
   <path stroke="null" id="path3997" d="m22.725132,41.639441c-1.67091,-0.019 -3.988174,0.281 -3.988174,6.375l0,16.094l3.132052,0l0,-3.938l3.035435,0l0,3.844l3.148585,0l0,-16.875c0,-5.293 -3.038535,-5.5 -4.666045,-5.5c-0.203568,0 -0.423153,0.003 -0.661854,0zm-0.807555,5.812l2.938818,0l0,6.344l-2.938818,0l0,-6.344z"/>
   <rect stroke="null" y="41.654441" x="31.191283" width="3.240553" id="rect4001" height="22.152"/>
   <path stroke="null" id="path4003" d="m37.825839,41.948441l0,22.152l7.798613,0l0,-5.881l-4.608178,0l0,-16.369l-3.190436,0.098z"/>
   <path stroke="null" id="path4005" d="m55.955781,41.752441l0,5.979l-5.216298,0l0,2.156c0,0 1.063823,0 2.22788,0s3.595505,-0.098 3.595505,6.96c0,7.057 -1.67091,7.449 -5.06388,7.449c-3.393487,0 -4.101841,0 -4.101841,0l0,-5.392c0,0 3.291703,0 4.709445,0s1.496276,-0.894 1.496276,-1.672s-0.724888,-1.141 -2.199463,-1.141s-4.208792,-1.402 -4.208792,-6.891c0,-5.489 1.417742,-7.548 4.253742,-7.548s4.507427,0.1 4.507427,0.1l0,0z"/>
  </g>
  <g stroke="null" id="layer6">
   <path stroke="null" id="path3966" d="m7.839506,38.989438l29.694311,0c0,0 -6.586208,-9.738007 -4.912038,-18.676406c1.67474,-8.938399 12.502748,-13.008352 18.64251,-13.444299c6.139193,-0.436318 9.488672,2.034791 9.488672,2.034791l1.339906,-1.308212c0,0 -8.819004,-5.813741 -19.982416,-5.159449c-11.163412,0.653921 -18.865733,5.450081 -23.66559,11.263822c-4.800426,5.814112 -7.591279,9.883322 -9.488672,15.987695s-1.116683,9.302059 -1.116683,9.302059z"/>
   <path stroke="null" id="path3968" d="m1.923536,29.251432l5.804929,0.290631l-1.005072,3.778579l-5.469525,-0.435947l0.669668,-3.633264z"/>
   <path stroke="null" id="path3970" d="m11.077374,21.257584l1.563128,-2.834027l-5.135261,-1.308212l-1.67417,3.052001l5.246302,1.090239z"/>
   <path stroke="null" id="path3972" d="m18.33325,11.519578l3.014076,-2.325051l-3.906966,-1.671501l-3.125687,2.252394l4.018578,1.744159z"/>
   <path stroke="null" id="path3974" d="m26.258794,2.508521l2.679242,2.107449l3.683744,-1.38087l-2.679242,-1.962133l-3.683744,1.235554z"/>
   <path stroke="null" id="path3976" d="m39.320168,0.11044l0.669668,2.107819l4.577204,-0.072658l-0.447015,-1.889475l-4.799857,-0.145686z"/>
   <path stroke="null" id="path3978" d="m54.836991,2.363205l-0.111611,1.307841l3.125687,1.089868l0.669668,-0.653921l-3.683744,-1.743789z"/>
   <path stroke="null" id="path3980" d="m54.166754,7.958972l0,1.089868l3.014076,0.217974l0,-0.872265l-3.014076,-0.435576z"/>
   <path stroke="null" id="path3982" d="m44.56704,8.903524l1.450947,1.743789l2.121185,-1.089868l-0.446445,-1.162896l-3.125687,0.508976z"/>
   <path stroke="null" id="path3984" d="m39.989266,11.156659l2.232796,2.180106l-1.339906,1.525815l-3.237298,-2.325051l2.344408,-1.38087z"/>
   <path stroke="null" id="path3986" d="m35.524813,17.188003l-1.451517,1.889475l3.795355,2.107819l0.892891,-2.398451l-3.236729,-1.598844z"/>
   <path stroke="null" id="path3988" d="m33.961685,23.80098l-0.223223,2.543396l4.688246,1.308212l-0.223223,-2.398451l-4.2418,-1.453157z"/>
   <path stroke="null" id="path3990" d="m35.301021,32.812408l1.116683,2.616424l5.91597,0.217974l-2.121185,-2.834398l-4.911468,0z"/>
  </g>
 </g>
</svg>