<svg width="64" height="64" xmlns="http://www.w3.org/2000/svg" preserveAspectRatio="xMidYMid meet">
 <metadata>Created by potrace 1.10, written by Peter Selinger 2001-2011</metadata>

 <g>
  <title>background</title>
  <rect fill="none" id="canvas_background" height="66" width="66" y="-1" x="-1"/>
 </g>
 <g>
  <title>Layer 1</title>
  <g id="svg_1" fill="#000000" transform="translate(0,200) scale(0.10000000149011612,-0.10000000149011612) ">
   <path stroke="null" id="svg_2" d="m40.562344,2003.786255c-14.008644,-10.668604 -23.055893,-26.186574 -29.184675,-49.948465c-3.794008,-15.51797 -4.377701,-47.038846 -4.377701,-203.673353c0,-170.21273 0.583694,-187.18551 5.545088,-205.128162c6.420629,-23.276955 15.759725,-38.309988 30.060215,-48.493655c9.339096,-6.304175 30.060215,-7.274048 138.919053,-7.274048l128.120723,0l55.159036,-50.918338c30.352062,-28.12632 55.450883,-48.978592 56.034576,-46.553909c0.291847,1.939746 -3.794008,22.307081 -9.630943,44.614163c-5.545088,22.307081 -10.214636,43.159353 -10.214636,46.553909c0,4.849366 20.429273,6.304175 98.644202,6.304175c109.442531,0 113.528386,1.45481 129.871804,33.460622c13.424951,26.67151 14.008644,38.309988 13.133104,239.073721l-0.87554,187.18551l-8.755403,21.337208c-5.253242,12.123414 -14.300491,25.216701 -21.888506,32.005813l-12.841257,10.668604l-273.168558,0c-259.159914,0 -273.460405,-0.484937 -284.550582,-9.213795zm258.284374,-58.677323c7.296169,-12.123414 7.296169,-31.520876 0,-59.16226c-12.841257,-48.493655 -25.390667,-165.848301 -28.309135,-265.260295c-0.87554,-33.945559 -2.918468,-64.981498 -4.377701,-69.345927c-3.794008,-12.60835 -14.884184,-15.51797 -25.098821,-6.789112c-16.051571,14.06316 -45.81994,93.107818 -57.49381,153.239951c-2.918468,14.548097 -5.836935,28.611257 -6.712475,31.035939c-0.87554,2.424683 -11.382023,-28.611257 -23.639587,-68.376054c-30.060215,-97.957184 -44.360706,-128.02325 -58.36935,-120.264265c-12.841257,6.789112 -28.017288,89.228326 -45.528093,248.772452c-11.965717,108.625788 -12.54941,127.053377 -4.669548,138.691854c7.296169,10.668604 25.098821,12.123414 30.935756,2.424683c2.918468,-4.364429 7.296169,-35.400368 11.67387,-77.589849c10.214636,-98.927057 19.553732,-170.21273 22.180353,-165.848301c1.167387,2.424683 14.008644,42.18948 28.892828,88.743389c30.060215,94.562628 35.313457,106.686042 46.987327,106.686042c13.716797,0 16.635265,-7.274048 24.515127,-65.466435c6.712475,-49.948465 16.635265,-104.261359 18.970039,-104.261359c1.167387,0 2.918468,15.033033 4.085855,33.460622c4.669548,76.135039 22.4722,175.547032 35.89715,200.278797c6.420629,11.638477 22.764047,11.153541 30.060215,-0.969873zm114.112079,-48.493655c23.639587,-20.367335 35.605304,-61.586942 35.89715,-123.658821c0,-53.343021 -5.545088,-86.318707 -21.304813,-127.053377c-15.176031,-39.279861 -30.352062,-56.25264 -52.824262,-58.677323c-45.81994,-5.334302 -72.961688,45.584036 -72.961688,136.752108c0,132.387679 56.034576,219.191322 111.193612,172.637413zm150.00923,7.758985c30.352062,-15.51797 48.154714,-64.496562 48.154714,-133.357552c0,-101.836676 -35.313457,-184.27589 -79.090469,-184.760827c-39.107465,0 -64.498132,43.159353 -68.875833,117.354646c-5.545088,103.291486 32.686836,203.188416 79.674163,207.067908c3.210314,0.484937 12.257564,-2.909619 20.137426,-6.304175z"/>
   <path stroke="null" id="svg_3" d="m377.645341,1835.028335c-17.218958,-10.668604 -32.103143,-57.70745 -32.103143,-102.321613c0,-81.469341 29.476522,-97.957184 51.073181,-28.12632c7.004322,22.792018 8.463556,33.945559 8.463556,60.132133c0,34.915432 -5.836935,60.132133 -15.467878,68.860991c-3.210314,2.424683 -6.128782,4.849366 -6.712475,4.364429c-0.583694,0 -2.918468,-1.45481 -5.253242,-2.909619z"/>
   <path stroke="null" id="svg_4" d="m536.118126,1832.118715c-14.884184,-13.578224 -30.060215,-65.466435 -30.060215,-102.806549c0,-32.975686 12.54941,-70.3158 23.639587,-70.3158c7.588016,0 22.4722,22.792018 29.476522,45.584036c9.047249,29.58113 10.506483,77.589849 2.918468,106.201105c-3.502161,12.60835 -7.296169,22.792018 -9.047249,22.792018c-1.459234,0 -4.377701,0.969873 -6.712475,2.424683c-2.042927,0.969873 -6.712475,-0.484937 -10.214636,-3.879492z"/>
  </g>
 </g>
</svg>