<svg width="64" height="64" xmlns="http://www.w3.org/2000/svg">

 <g>
  <title>background</title>
  <rect fill="none" id="canvas_background" height="66" width="66" y="-1" x="-1"/>
 </g>
 <g>
  <title>Layer 1</title>
  <g stroke="null" id="svg_1">
   <path stroke="null" id="svg_2" d="m7.749973,29.499539c0,8.528842 5.347621,15.9005 13.10416,19.392678l-11.090855,-28.162359c-1.290133,2.67966 -2.013305,5.645447 -2.013305,8.769682zm38.945324,-1.086891c0,-2.663873 -1.032324,-4.507738 -1.91643,-5.942752c-1.178121,-1.775762 -2.283707,-3.278072 -2.283707,-5.053949c0,-1.980533 1.620598,-3.824398 3.904305,-3.824398c0.103414,0 0.201016,0.011754 0.301281,0.0174c-4.13632,-3.51292 -9.647539,-5.657777 -15.700289,-5.657777c-8.122969,0 -15.269074,3.863002 -19.426102,9.712414c0.545527,0.016248 1.059934,0.026158 1.496234,0.026158c2.431199,0 6.196367,-0.273797 6.196367,-0.273797c1.252715,-0.068104 1.40057,1.638287 0.148824,1.775877c0,0 -1.25998,0.136437 -2.661156,0.204541l8.466512,23.341068l5.088602,-14.142484l-3.622035,-9.198584c-1.252594,-0.068219 -2.438707,-0.204541 -2.438707,-0.204541c-1.253441,-0.06868 -1.106312,-1.843865 0.147613,-1.775877c0,0 3.838672,0.273797 6.123348,0.273797c2.430715,0 6.196973,-0.273797 6.196973,-0.273797c1.253562,-0.068104 1.401055,1.638287 0.148098,1.775877c0,0 -1.261313,0.136668 -2.660914,0.204541l8.402695,23.163146l2.319672,-7.180945c1.003988,-2.981689 1.768816,-5.122168 1.768816,-6.965918zm-15.287117,2.971664l-6.976574,18.786545c2.083781,0.56799 4.286355,0.877971 6.568609,0.877971c2.707293,0 5.30427,-0.433166 7.720937,-1.221484c-0.061758,-0.092533 -0.119398,-0.190367 -0.166504,-0.296959l-7.146469,-18.146072zm19.993668,-12.222449c0.100023,0.686221 0.156816,1.422338 0.156816,2.215842c0,2.18542 -0.441508,4.643715 -1.768211,7.717822l-7.101543,19.029344c6.912395,-3.735207 11.561062,-10.675773 11.561062,-18.625217c0,-3.746846 -1.032809,-7.268984 -2.848125,-10.337791zm-20.401875,-19.161863c-17.12084,0 -31,13.207588 -31,29.5s13.87916,29.5 31,29.5s31,-13.207588 31,-29.5s-13.87916,-29.5 -31,-29.5zm0,55.3125c-14.98075,0 -27.125,-11.556625 -27.125,-25.8125s12.14425,-25.8125 27.125,-25.8125c14.980871,0 27.125,11.556625 27.125,25.8125s-12.144129,25.8125 -27.125,25.8125z"/>
  </g>
  <g id="svg_3"/>
  <g id="svg_4"/>
  <g id="svg_5"/>
  <g id="svg_6"/>
  <g id="svg_7"/>
  <g id="svg_8"/>
  <g id="svg_9"/>
  <g id="svg_10"/>
  <g id="svg_11"/>
  <g id="svg_12"/>
  <g id="svg_13"/>
  <g id="svg_14"/>
  <g id="svg_15"/>
  <g id="svg_16"/>
  <g id="svg_17"/>
 </g>
</svg>